<svg width="359" height="48" viewBox="0 0 359 48" fill="none" xmlns="http://www.w3.org/2000/svg">
<path d="M100.312 34.0132C116.399 32.3208 121.058 4.34297 100.577 5.04048C84.5985 3.50474 75.0384 29.951 93.0428 33.896C90.1072 42.6787 100.413 43.2105 106.328 40.978L106.215 35.3843C104.575 35.8996 99.1931 37.2446 100.312 34.0132ZM99.4764 13.4156C107.464 13.2413 104.67 26.3611 98.1443 25.9036C90.2046 26.0689 93.004 12.9309 99.4764 13.4156H99.4764Z" fill="white"/>
<path d="M127.49 34.2788C144.621 35.3218 142.904 17.1167 145.189 5.95463H135.294L132.626 22.7437C132.537 23.6659 132.088 24.5155 131.375 25.1075C130.662 25.6994 129.744 25.9857 128.822 25.9038C126.65 25.9038 125.622 24.7593 125.966 22.7046L128.669 5.95463H118.771C117.979 15.991 109.252 35.089 127.49 34.2788Z" fill="white"/>
<path d="M144.196 33.3648H154.095L158.434 5.95463H148.536L144.196 33.3648Z" fill="white"/>
<path d="M172.172 34.2788C175.866 34.3378 179.466 33.1199 182.366 30.8311C185.265 28.5422 187.286 25.3227 188.086 21.7163L179.063 20.7632C177.723 26.6165 168.63 28.2416 168.711 21.0676C167.755 14.488 177.037 9.44546 177.77 17.9078L187.02 15.9273C187.325 9.34134 182.719 5.04056 174.762 5.04056C157.135 3.85172 151.315 34.9563 172.172 34.2788Z" fill="white"/>
<path d="M188.463 33.3648H198.361L199.541 25.9038L201.9 23.6187L204.225 33.3648H215.986L209.896 16.1578L220.326 5.95466H208.564L201.482 14.1031L201.404 14.064L202.701 5.95466H192.803L188.463 33.3648Z" fill="white"/>
<path d="M229.571 33.3648H241.676L248.493 15.6617H248.567L249.747 33.3648H261.852L273.618 5.95463H263.68L257.247 24.0015H257.172L255.762 5.95463H244.34L237.184 24.0015H237.11L236.422 5.95463H226.485L229.571 33.3648Z" fill="white"/>
<path d="M269.266 33.3648H278.977L280.88 29.0992H288.454L288.798 33.3648H299.04L294.583 5.95463H282.403L269.266 33.3648ZM283.2 22.7046L287.274 13.3023H287.352L288.149 22.7046H283.2Z" fill="white"/>
<path d="M313.422 34.2788C329.587 34.9063 332.754 16.4407 316.011 15.4354C307.612 13.5963 318.493 8.88162 318.297 14.8609L327.203 13.0718C327.23 1.52674 301.622 2.77867 303.184 15.2833C302.663 20.4223 308.412 22.8552 314.336 23.5793C323.635 26.1561 309.692 30.427 310.149 23.8492L301.09 25.3335C301.277 30.8531 306.113 34.2788 313.422 34.2788Z" fill="white"/>
<path d="M327.886 33.3648H337.784L339.421 23.0874H346.046L344.405 33.3648H354.304L358.644 5.95463H348.745L347.226 15.4703H340.601L342.124 5.95463H332.226L327.886 33.3648Z" fill="white"/>
<path d="M51.9849 16.4078C49.3089 11.7941 48.519 -0.38237 40.919 0.00924017L16.3638 0.0093775C14.9746 -0.0674888 13.5982 0.310857 12.4435 1.08701C11.2888 1.86317 10.4187 2.99477 9.96535 4.31016L5.29347 16.4078C-2.42068 16.8712 0.753838 33.4036 0.160658 38.3766H4.71926V43.2906C4.68603 43.8718 4.77182 44.4537 4.97137 45.0006C5.17092 45.5475 5.48003 46.0479 5.87975 46.4711C6.27948 46.8943 6.76141 47.2315 7.29601 47.4619C7.83061 47.6923 8.40664 47.8112 8.98879 47.8112C9.57094 47.8112 10.147 47.6923 10.6816 47.4619C11.2162 47.2315 11.6981 46.8943 12.0978 46.4711C12.4975 46.0479 12.8067 45.5475 13.0062 45.0006C13.2058 44.4537 13.2915 43.8718 13.2583 43.2906V38.3766H44.02V43.2906C43.9894 43.8729 44.0776 44.4552 44.2793 45.0023C44.481 45.5493 44.792 46.0496 45.1933 46.4725C45.5945 46.8955 46.0778 47.2323 46.6134 47.4625C47.1491 47.6927 47.7261 47.8114 48.3091 47.8114C48.8921 47.8114 49.4691 47.6927 50.0048 47.4625C50.5404 47.2323 51.0236 46.8955 51.4249 46.4725C51.8262 46.0496 52.1372 45.5493 52.3389 45.0023C52.5406 44.4552 52.6288 43.8729 52.5982 43.2906V38.3766H57.1607C56.5689 33.3442 59.7485 16.8861 51.9849 16.4078ZM9.12551 29.0797C3.99006 29.1786 4.00188 20.82 9.12586 20.9391C14.2345 20.8225 14.2464 29.1774 9.12551 29.0797ZM28.6607 16.2945H10.1568C11.5062 14.2442 13.027 4.17958 16.3242 4.42704L40.9927 4.42735C44.3147 4.21058 45.8129 14.275 47.1607 16.2945H28.6607ZM48.1958 29.0797C43.0254 29.1763 43.0373 20.8223 48.1962 20.9391C53.2955 20.827 53.3075 29.1729 48.1958 29.0797V29.0797Z" fill="#485480"/>
</svg>
