<svg id="Camada_1" data-name="Camada 1" xmlns="http://www.w3.org/2000/svg" xmlns:xlink="http://www.w3.org/1999/xlink" viewBox="0 0 68.7002 32">
  <defs>
    <clipPath id="clip-path" transform="translate(-353.11401)">
      <rect x="393.09321" y="6.69992" width="27.06802" height="22.79413" fill="none"/>
    </clipPath>
  </defs>
  <g>
    <rect x="36.7002" width="32" height="32" fill="#fff"/>
    <g>
      <g clip-path="url(#clip-path)">
        <polygon points="25.072 20.134 0 19.712 4.558 7.289 21.171 7.289 25.072 20.134" fill="#fff"/>
      </g>
      <g>
        <path d="M400.6153,11.77264c.07422,5.07869-7.90365,5.07879-7.82879-.00035C392.71226,6.694,400.69016,6.69386,400.6153,11.77264Z" transform="translate(-353.11401)" fill="#00a3d5" fill-rule="evenodd"/>
        <path d="M395.47236,10.53656a.41329.41329,0,1,1,.40228.40228A.41329.41329,0,0,1,395.47236,10.53656Z" transform="translate(-353.11401)" fill="#00a3d5" fill-rule="evenodd"/>
        <path d="M401.12818,7.2475c.03775,2.578-4.01218,2.57809-3.97412-.00019C397.11628,4.66948,401.16618,4.66942,401.12818,7.2475Z" transform="translate(-353.11401)" fill="#00a3d5" fill-rule="evenodd"/>
        <path d="M409.96088,5.94923c.12348,3.2789-9.46981,3.279-9.34558-.00032C400.4918,2.67033,410.08512,2.67027,409.96088,5.94923Z" transform="translate(-353.11401)" fill="#00a3d5" fill-rule="evenodd"/>
        <path d="M418.0528,7.79628c.04813,3.29005-5.12024,3.29013-5.07168-.00023C412.933,4.50624,418.10133,4.50615,418.0528,7.79628Z" transform="translate(-353.11401)" fill="#00a3d5" fill-rule="evenodd"/>
        <path d="M418.98682,11.35405c.03394,2.31747-3.60672,2.31754-3.57248-.00015C415.38041,9.03658,419.021,9.03651,418.98682,11.35405Z" transform="translate(-353.11401)" fill="#00a3d5" fill-rule="evenodd"/>
        <path d="M415.6594,15.49428c-.05838,3.99246,6.21329,3.99254,6.15439-.00028C421.87217,11.50183,415.60053,11.50174,415.6594,15.49428Z" transform="translate(-353.11401)" fill="#00a3d5" fill-rule="evenodd"/>
        <path d="M413.89286,5.91826c.042,2.43545-4.25925,2.43552-4.21692-.00018C409.634,3.4828,413.93516,3.48274,413.89286,5.91826Z" transform="translate(-353.11401)" fill="#00a3d5" fill-rule="evenodd"/>
        <path d="M396.36277,17.74927c.062,4.242-6.60162,4.24208-6.53906-.00029C389.76167,13.50728,396.4253,13.5072,396.36277,17.74927Z" transform="translate(-353.11401)" fill="#00a3d5" fill-rule="evenodd"/>
      </g>
      <polygon points="66.289 21.343 40.915 20.553 45.759 7.796 60.9 7.796 66.289 21.343" fill="#fff" fill-rule="evenodd"/>
      <path d="M417.70524,14.5354c-1.31525-2.16808-1.59149-7.99437-5.25672-7.78906H400.78773c-3.63721-.21878-3.97553,5.6428-5.257,7.78911-3.62442.08059-2.17331,8.17643-2.43747,10.43061h2.16479c-.96661,6.05573,5.0207,6.0224,4.05686,0h14.6062c-.9621,6.029,5.04446,6.04813,4.07541,0h2.16476C419.89838,22.68718,421.34864,14.62244,417.70524,14.5354ZM397.35044,20.553c-2.43414.04732-2.43216-3.92179.00018-3.86578C399.781,16.632,399.78306,20.60005,397.35044,20.553Zm9.27683-6.07324H397.842c.7027-.98614,1.28418-5.71147,2.92874-5.63557l11.71454.00012c1.61926-.08742,2.26071,4.67229,2.929,5.63547Zm9.27679,6.07324c-2.45071.04621-2.44873-3.9207.00018-3.86578C418.32847,16.63422,418.33054,20.59789,415.90406,20.553Z" transform="translate(-353.11401)" fill="#1b2a61"/>
    </g>
  </g>
</svg>
